<svg xmlns="http://www.w3.org/2000/svg" version="1.1" xmlns:xlink="http://www.w3.org/1999/xlink" width="1500" height="1500" viewBox="0 0 1500 1500"><rect width="1500" height="1500" x="0" y="0" id="background" stroke="transparent" fill="#7568a6"></rect><svg xml:space="preserve" width="1000" height="1000" data-version="2" data-id="lg_E5falJcQI5jTe5SGOL" viewBox="0 0 463 572" x="250" y="250"><rect width="100%" height="100%" fill="transparent"></rect><path fill="#f7d3c1" d="M5.09 492.315q2.99-.58 4.03-1.72 1.04-1.14 1.04-3.87l.07-27.3q0-2.08-.49-2.79-.49-.72-1.92-.72-.65 0-1.3.07-.65.06-.91.06l-.13-.26.46-2.86q.84.07 3.41.13 2.57.07 5.62.07 12.81 0 18.27-.78l.19.39q-.06.39-.36 1.82-.29 1.43-.61 3.96-.33 2.54-.52 5.2l-3.12.26q0-.32.06-1.23.07-.91.07-1.76 0-2.27-.56-3.15-.55-.88-2.24-1.17-1.69-.29-5.91-.29-2.28 0-3.12.13-.85.13-1.11.62-.26.48-.32 1.78l-.52 13.72 6.69.06q1.24 0 3.64-.29 2.41-.29 3.19-.42l.26.32-.91 3.9q-.85-.06-3.16-.13-2.3-.06-4.84-.06-2.4 0-5 .45l-.26 10.79q0 2.67.58 3.55.59.87 2.28.87 1.3 0 2.69-.09 1.4-.1 1.92-.1l.13.26-.58 3.05q-1.04-.06-3.87-.16t-5.82-.1q-2.01 0-4.35.33-2.34.32-3.06.45Z"></path><rect width="28.73" height="42.96" x="-14.37" y="-21.48" fill="none" rx="0" ry="0" transform="translate(19.57 474.32)"></rect><path fill="#f7d3c1" d="M51.18 495.115q-4.42 0-7.84-1.95-3.41-1.95-5.26-5.53-1.85-3.57-1.85-8.25 0-5.07 2.3-9.13 2.31-4.07 6.31-6.37 4-2.31 8.94-2.31 4.48 0 7.93 1.95 3.44 1.95 5.33 5.49 1.88 3.54 1.88 8.22 0 5.07-2.31 9.14-2.3 4.06-6.37 6.4-4.06 2.34-9.06 2.34m1.56-3.12q4.74 0 7.67-3.41 2.92-3.42 2.92-9.07 0-4.29-1.4-7.54-1.39-3.25-3.96-5.01-2.57-1.75-5.95-1.75-4.61 0-7.44 3.38t-2.83 9.03q0 4.29 1.37 7.54 1.36 3.25 3.86 5.04 2.51 1.79 5.76 1.79"></path><rect width="32.69" height="33.54" x="-16.34" y="-16.77" fill="none" rx="0" ry="0" transform="translate(53.08 478.85)"></rect><path fill="#f7d3c1" d="M89.59 495.115q-5.78 0-8.81-2.86-3.02-2.86-3.02-8.26v-16.57q0-1.63-.39-2.18-.39-.55-1.56-.55l-1.75.06-.13-.19.39-2.54q.71 0 2.6.07 1.88.06 3.83.06 1.43 0 3.32-.16 1.88-.16 2.47-.23l-.26 2.6q-1.89.26-2.54.85-.65.58-.78 2.01l-.39 14.89q0 4.61 2.15 7.12 2.14 2.5 6.17 2.5 4.1 0 6.21-2.05 2.11-2.05 2.11-5.95 0-4.03-.1-9.13-.09-5.1-.16-7.18-.13-1.76-.45-2.24-.33-.49-1.43-.49l-2.21.06-.07-.19.39-2.54q.65 0 2.44.07 1.79.06 3.61.06 1.49 0 3.21-.16 1.73-.16 2.25-.23l-.2 2.6q-2.27.33-2.92.85-.65.52-.65 1.95v16.64q0 5.39-3.48 8.35t-9.85 2.96"></path><rect width="32.76" height="33.35" x="-16.38" y="-16.68" fill="none" rx="0" ry="0" transform="translate(90.81 478.94)"></rect><path fill="#f7d3c1" d="M138.93 466.905q0-2.15-1.76-2.15h-1.95l-.13-.26.46-2.53q.58.06 2.21.13 1.62.06 3.31.06 1.43 0 3.22-.16 1.79-.16 2.31-.23l-.26 2.67q-1.89.26-2.7 1.01-.81.74-.88 2.24l-.78 27.95-2.53.71q-6.18-9.03-12.48-17.68-6.31-8.64-6.31-8.51h-.32l-.2 19.69q0 1.24.39 1.69.39.46 1.3.46l2.6-.07.2.2-.52 2.6q-.59-.07-2.31-.13-1.72-.07-3.61-.07-1.49 0-3.18.17-1.69.16-2.21.22l.32-2.66q1.63-.2 2.41-.94.78-.75.84-2.25l.72-21.45q0-1.62-.95-2.24-.94-.62-3.6-.94l-.26-.33.45-2.21q.52.07 1.98.17 1.47.09 2.96.09 1.43 0 2.54-.06 1.1-.07 1.43-.13 5.26 7.73 11.14 15.79 5.89 8.06 5.89 7.93h.32Z"></path><rect width="34.32" height="34.58" x="-17.16" y="-17.29" fill="none" rx="0" ry="0" transform="translate(129.94 479.56)"></rect><path fill="#f7d3c1" d="M166.49 495.115q-.85-.13-3.42-.36-2.56-.23-4.32-.23-1.69 0-3.7.23-2.02.23-2.6.36l.32-2.73q2.34-.39 3.19-1.3.84-.91.84-2.99l.07-20.67q0-1.63-.39-2.18-.39-.55-1.5-.55-.58 0-1.1.06-.52.07-.72.07l-.13-.33.39-2.47q.65 0 2.37.07 1.73.06 3.48.06 2.34 0 4.81-.09 2.47-.1 3.38-.1 5.2 0 9.17 1.88 3.96 1.89 6.14 5.3 2.18 3.41 2.18 7.96 0 5.07-2.44 9.17-2.44 4.09-6.66 6.47-4.23 2.37-9.36 2.37m-2.47-30.1q-1.04 0-1.4.23-.36.23-.42.94-.78 18.27-.78 21.45 0 1.76.52 2.7.52.94 1.82 1.3 1.3.36 3.83.36 5.46 0 8.55-3.58 3.09-3.57 3.09-10.01 0-6.56-3.9-9.97-3.9-3.42-11.31-3.42"></path><rect width="32.5" height="33.15" x="-16.25" y="-16.57" fill="none" rx="0" ry="0" transform="translate(169.2 479.04)"></rect><path fill="#f7d3c1" d="M191.45 492.315q2.4-.26 3.25-1.17.84-.91.84-3.12l.07-20.6q0-1.63-.39-2.18-.39-.55-1.56-.55l-1.76.06-.13-.26.39-2.47q.78 0 3.06.07 2.27.06 4.94.06 10.85 0 16.05-.58l.2.32-.59 3.25q-.45 2.54-.65 5.46l-3.12.26q0-.26.07-.87.06-.62.06-1.27 0-1.69-.49-2.37-.48-.69-2.01-.91-1.53-.23-5.3-.23-1.75 0-2.4.1-.65.09-.85.45-.19.36-.26 1.33l-.39 9.23 5.33.07q1.17 0 3.45-.23 2.27-.23 2.99-.29l.26.32-.78 3.38q-.72 0-2.83-.06-2.11-.07-4.45-.07-1.82 0-4.1.33-.19 4.94-.19 8.9 0 1.5.22 2.08.23.59 1.04.78.82.2 2.7.2 4.23 0 6.05-.39 1.82-.39 2.56-1.59.75-1.21 1.21-4.13l2.86-.26.26.32q-.2.72-.69 3.35-.48 2.63-.74 5.49l-.39.33q-1.76-.07-7.28-.2-5.53-.13-8.97-.13-2.67 0-4.94.23-2.28.23-2.93.29Z"></path><rect width="25.94" height="33.47" x="-12.97" y="-16.73" fill="none" rx="0" ry="0" transform="translate(204.59 478.81)"></rect><path fill="#f7d3c1" d="M248.65 495.305q-1.43 0-2.93-1.26-1.49-1.27-2.73-3.48l-5.46-9.56h-4.22l-.13 6.96q0 1.88.26 2.7.26.81 1 1.07.75.26 2.57.32l.13.2-.52 2.47q-.78-.07-2.83-.1-2.04-.03-4.12-.03-2.02 0-3.51.06-1.5.07-2.02.13l.46-2.66q2.4-.33 3.18-1.11.78-.78.78-2.92l.07-20.74q0-1.56-.39-2.11-.39-.55-1.5-.55l-1.82.06-.19-.26.39-2.47q.65 0 2.47.07 1.82.06 3.64.06 1.88 0 4.03-.09 2.14-.1 2.92-.1 5.27 0 8.26 2.18 2.99 2.17 2.99 6.01 0 2.99-2.02 5.52-2.01 2.54-5.65 4.16l5.52 8.32q1.56 2.34 2.99 3.32 1.43.97 3.45.97l.26.33-.33 2.01zm-9.95-17.16q1.24-.52 2.18-1 .94-.49 2.11-2.05 1.17-1.56 1.17-4.03 0-6.31-9.29-6.31-.52 0-.72.23-.19.23-.19.94-.52 7.93-.52 11.7z"></path><rect width="29.84" height="33.34" x="-14.92" y="-16.67" fill="none" rx="0" ry="0" transform="translate(239.56 479.13)"></rect><path fill="#f7d3c1" d="M267.43 495.115q-2.27 0-4.19-.39-1.92-.39-3.06-.81-1.13-.43-1.39-.56l-.33-.58q.07-.33.23-1.46.16-1.14.32-3.19.17-2.05.17-4.13l2.92-.26q0 3.51.55 5.24.56 1.72 1.92 2.37 1.37.65 4.16.65 3.12 0 5.04-1.37 1.92-1.36 1.92-3.64 0-1.49-1.08-2.63-1.07-1.14-2.47-1.92-1.39-.78-4.45-2.27-4.16-2.02-6.4-3.97-2.24-1.95-2.24-5 0-2.73 1.65-4.94 1.66-2.21 4.59-3.45 2.92-1.23 6.5-1.23 2.14 0 4.03.26 1.88.26 2.99.55 1.1.29 1.36.42l.26.46q-.13.71-.58 3.22-.46 2.5-.65 5.36l-2.54.26-.39-.26q0-.2.07-.81.06-.62.06-1.53 0-2.54-1.33-3.54-1.33-1.01-4.71-1.01-2.73 0-4.52 1.27-1.79 1.26-1.79 3.21t1.79 3.32q1.79 1.36 5.43 3.12 3.18 1.49 5.1 2.6 1.92 1.1 3.28 2.79 1.37 1.69 1.37 3.9 0 2.93-1.73 5.17-1.72 2.24-4.81 3.51-3.08 1.27-7.05 1.27"></path><rect width="22.56" height="33.54" x="-11.28" y="-16.77" fill="none" rx="0" ry="0" transform="translate(270.24 478.85)"></rect><path fill="#f7d3c1" d="M288.69 492.445q2.47-.45 3.28-1.33.81-.88.81-3.09l.07-20.6q0-1.63-.39-2.18-.39-.55-1.56-.55l-1.76.06-.13-.26.39-2.47q.78 0 3.06.07 2.27.06 4.94.06 10.07 0 14.95-.58l.26.32q-.13.72-.59 3.32-.45 2.6-.65 5.52l-3.12.2q0-.26.07-.91.06-.65.06-1.3 0-1.69-.42-2.37-.42-.69-1.79-.91-1.36-.23-4.55-.23-1.75 0-2.4.1-.65.09-.85.45-.19.36-.26 1.33l-.45 10.08 5.39.06q1.04 0 2.99-.22 1.95-.23 2.6-.3l.26.33-.71 3.44q-.65 0-2.54-.06-1.88-.07-3.96-.07-1.82 0-4.1.33l-.19 7.67q0 2.01.45 2.7.46.68 1.89.68 1.04 0 2.14-.1 1.11-.1 1.5-.1l.19.33-.45 2.86q-.85-.07-3.22-.13-2.37-.07-4.84-.07-1.89 0-3.97.23t-2.73.36Z"></path><rect width="24.25" height="33.54" x="-12.13" y="-16.77" fill="none" rx="0" ry="0" transform="translate(300.99 478.85)"></rect><path fill="#f7d3c1" d="M341.86 495.305q-1.43 0-2.93-1.26-1.49-1.27-2.73-3.48l-5.46-9.56h-4.22l-.13 6.96q0 1.88.26 2.7.26.81 1 1.07.75.26 2.57.32l.13.2-.52 2.47q-.78-.07-2.83-.1-2.04-.03-4.12-.03-2.02 0-3.51.06-1.5.07-2.02.13l.46-2.66q2.4-.33 3.18-1.11.78-.78.78-2.92l.07-20.74q0-1.56-.39-2.11-.39-.55-1.5-.55l-1.82.06-.19-.26.39-2.47q.65 0 2.47.07 1.82.06 3.64.06 1.88 0 4.03-.09 2.14-.1 2.92-.1 5.27 0 8.26 2.18 2.99 2.17 2.99 6.01 0 2.99-2.02 5.52-2.01 2.54-5.65 4.16l5.52 8.32q1.56 2.34 2.99 3.32 1.43.97 3.45.97l.26.33-.33 2.01zm-9.95-17.16q1.24-.52 2.18-1 .94-.49 2.11-2.05 1.17-1.56 1.17-4.03 0-6.31-9.29-6.31-.52 0-.72.23-.19.23-.19.94-.52 7.93-.52 11.7z"></path><rect width="29.84" height="33.34" x="-14.92" y="-16.67" fill="none" rx="0" ry="0" transform="translate(332.77 479.13)"></rect><path fill="#f7d3c1" d="m366.49 494.655.2-2.34q2.73-.19 3.67-.58.94-.39.94-1.3 0-1.04-.45-2.21l-1.56-5.01q-1.3-.06-5.4-.06-1.88 0-5.59.39l-1.82 4.81q-.45 1.49-.45 1.82 0 1.04.71 1.49.72.46 2.34.46h2.8l.19.26-.39 2.47q-.65-.07-2.96-.2-2.3-.13-4.51-.13-2.08 0-3.74.07-1.66.06-2.24.06l.39-2.66q1.43-.2 2.27-1.01.85-.81 1.69-2.76l10.21-25.81 4.61-.84.46.06q0 .26 2.95 10.27 2.96 10.01 5.3 16.58.65 1.88 1.66 2.63 1.01.75 3.22.94l.13.26-.33 2.34q-.65 0-2.4-.06-1.76-.07-3.51-.07-2.67 0-5.07.2-2.41.19-3.12.26Zm-2.73-14.17q2.28 0 4.75-.26l-3.97-12.61h-.45l-4.75 12.87Z"></path><rect width="32.89" height="33.41" x="-16.45" y="-16.7" fill="none" rx="0" ry="0" transform="translate(365.18 478.78)"></rect><path fill="#f7d3c1" d="M402.89 495.435q-6.56-17.81-9.81-26.06h-.33q-.26 3.12-.94 11.63-.68 8.52-.68 9.36 0 .85.39 1.21.39.35 1.3.35h2.08l.13.2-.46 2.6q-.58 0-2.24-.1-1.66-.1-3.28-.1-1.3 0-2.8.17-1.49.16-1.95.22l.26-2.66q1.69-.2 2.41-1.01.71-.81.97-2.83.52-4.42 1.4-12.41.88-8 .88-8.97 0-1.3-1.01-1.92-1.01-.62-3.48-.75l-.19-.32.45-2.15q.72.07 2.54.17 1.82.09 3.51.09 1.43 0 2.63-.06 1.2-.07 1.59-.13 1.95 6.04 3.8 11.34 1.86 5.3 3.06 8.45 1.2 3.15 1.53 3.93h.32q.72-1.82 3.22-8.51 2.5-6.7 5.43-15.08.39-.07 1-.03.62.03 1.21.03.71.06 2.08.06 1.04 0 3.02-.13t2.63-.19l.13.19-.32 2.28q-2.28.26-3.19.88-.91.61-.91 1.91 0 1.3.46 8.26.45 6.95.91 11.83.32 2.92.84 3.83.52.91 1.76.91l1.49-.06.13.19-.45 2.6q-.52 0-2.02-.06-1.49-.07-3.18-.07-1.69 0-3.84.2-2.14.19-2.27.19l.26-2.66q1.69-.2 2.4-.78.72-.59.72-1.76t-.69-9.29q-.68-8.13-.94-11.05h-.32q-3.84 9.81-9.75 25.67z"></path><rect width="40.56" height="33.6" x="-20.28" y="-16.8" fill="none" rx="0" ry="0" transform="translate(405.08 479.13)"></rect><path fill="#f7d3c1" d="M431.69 492.315q2.4-.26 3.25-1.17.84-.91.84-3.12l.07-20.6q0-1.63-.39-2.18-.39-.55-1.56-.55l-1.76.06-.13-.26.39-2.47q.78 0 3.06.07 2.27.06 4.94.06 10.85 0 16.05-.58l.2.32-.59 3.25q-.45 2.54-.65 5.46l-3.12.26q0-.26.07-.87.06-.62.06-1.27 0-1.69-.49-2.37-.48-.69-2.01-.91-1.53-.23-5.3-.23-1.75 0-2.4.1-.65.09-.85.45-.19.36-.26 1.33l-.39 9.23 5.33.07q1.17 0 3.45-.23 2.27-.23 2.99-.29l.26.32-.78 3.38q-.72 0-2.83-.06-2.11-.07-4.45-.07-1.82 0-4.1.33-.19 4.94-.19 8.9 0 1.5.22 2.08.23.59 1.04.78.82.2 2.7.2 4.23 0 6.05-.39 1.82-.39 2.56-1.59.75-1.21 1.21-4.13l2.86-.26.26.32q-.2.72-.69 3.35-.48 2.63-.74 5.49l-.39.33q-1.76-.07-7.28-.2-5.53-.13-8.97-.13-2.67 0-4.94.23-2.28.23-2.93.29Z"></path><rect width="25.94" height="33.47" x="-12.97" y="-16.73" fill="none" rx="0" ry="0" transform="translate(444.83 478.81)"></rect><path fill="#f7d3c1" d="M48.7 565.585q-.77 0-1.57-.37-.79-.37-1.33-.99t-.54-1.33q0-.66.65-.66.12 0 .23.02.11.02.24.05.37 1.33.77 1.97.4.63 1.64.63 1.93 0 4.2-2.63 2.28-2.64 5.17-7.79l5.58-9.95-3.23 3.44q-1.98 2.11-3.28 3.45-1.31 1.33-1.93 1.95-1.11 1.11-2.2 2.08-1.08.96-2.15 1.55-1.07.58-2.19.58-1.76 0-1.76-2.07 0-2.48 2.1-5.12.78-.93 1.55-1.86.78-.93 1.55-1.89 2.51-3.16 3.69-5.18.44-.77.67-1.36.23-.59.23-1.05 0-.69-.59-1.01-.59-.33-1.89-.33-3.28 0-9.08 3.97-1.37.9-2.57 2.2-1.21 1.3-1.96 2.73-.74 1.43-.74 2.76 0 1.36.82 1.97.82.6 2.03.6 1.58 0 3.5-1.36 2.27-1.52 2.55-1.61-.31 1.14-2.45 2.51-2.36 1.45-4.41 1.45-1.61 0-2.44-1.11-.84-1.12-.84-2.61 0-4.21 6.17-8.61 1.24-.9 2.99-1.68 1.75-.77 3.58-1.25t3.29-.48q1.36 0 2.35.52.99.53.99 1.71 0 1.42-1.83 4.25-.77 1.2-2.12 2.97-1.35 1.77-3.27 4.06-.77.9-1.43 2.36-.65 1.42-.65 2.29 0 .84.65.84.69 0 2.02-.96 3.78-2.7 7.78-6.79 3.53-3.6 5.3-6.2 1.27-1.83 2.7-1.83.49 0 .49.31 0 .06-.01.12-.02.07-.05.13-1.64 2.88-4.29 7.41-2.65 4.52-6.34 10.69-1.02 1.68-2.39 3.16-1.36 1.49-2.88 2.42-1.52.93-3.07.93"></path><rect width="29.01" height="28.39" x="-14.51" y="-14.2" fill="none" rx="0" ry="0" transform="translate(53.73 551.89)"></rect><path fill="#f7d3c1" d="M66.96 557.775q-.78 0-1.21-.73-.43-.73-.43-1.41 0-1.86 2.69-5.21 2.73-3.38 4.41-3.38 1.58 0 1.58 1.68 0 .25-.05.53-.05.27-.11.58.06.1.31.1.84 0 1.99-.59-.04.53-2.45 1.52.34 1.02-2.05 3.9-2.45 3.01-4.18 3.01Zm.56-.93q1.33 0 3.41-2.45 2.01-2.39 2.01-3.44-.49-.28-1.24-1.43-1.05 0-3.04 2.55-1.95 2.48-1.89 3.81.03.96.75.96"></path><rect width="10.82" height="10.73" x="-5.41" y="-5.37" fill="none" rx="0" ry="0" transform="translate(71.23 552.91)"></rect><path fill="#f7d3c1" d="M75.79 558.055q-1.39 0-1.39-1.77 0-.68.42-1.62.42-.95 1.19-2l-.56.52q-.55.53-1.27 1.34-.12.12-.31.12-.12 0-.12-.16 0-.15.28-.52l4.28-5.02q.8-.93 1.76-.93.72 0 .72.55 0 .22-.19.41-.59.55-1.44 1.58-.85 1.02-1.66 2.2-.81 1.18-1.35 2.25t-.54 1.72q0 .55.37.55.22 0 .68-.17.47-.17 1.24-.71.78-.54 1.86-1.69.19-.18.99-1.11.81-.93 2.17-2.67 2.42-3.01 3.17-3.01 1.02 0 1.11.84.06.28-1.3 1.83-1.77 2.14-2.42 3.07-1.21 1.76-1.21 2.76 0 .68.47.68.46 0 1.19-.45t1.54-1.15q.8-.7 1.56-1.45.76-.76 1.32-1.42.19-.21.37-.21.19 0 .19.18 0 .07-.03.19t-.19.28q-.5.56-1.27 1.38-.78.82-1.67 1.63-.9.8-1.74 1.33t-1.43.53q-.71 0-1.24-.39-.52-.39-.52-1.07t.21-1.38q.22-.7.34-1.19-1.45 1.7-2.55 2.6-1.1.9-1.85 1.22-.74.33-1.18.33"></path><rect width="15.16" height="10.14" x="-7.58" y="-5.07" fill="none" rx="0" ry="0" transform="translate(81.83 553.49)"></rect><path fill="#f7d3c1" d="M93.84 557.865q-1.34 0-1.83-.69-.5-.7-.5-1.88 0-1.3.81-3.1.31-.71.65-1.29.34-.57.71-1.07-.12.04-.22.04h-.18q-.75 0-1.24-1.06l-2.3 2.98q-1.82 2.38-2.23 2.38-.15 0-.15-.12 0-.15.15-.4.1-.19.37-.5 1.18-1.36 2.17-2.7 1-1.33 1.65-2.6.71-2.7 1.8-2.7.71 0 .71.65 0 .59-.78 1.55-.74.97-.74 1 0 .65.96.65.56 0 1.24-.41l.81-.49q.06-.03.18-.03.37 0 .65.31t.19.56l-2.14 2.69q-1.98 2.54-1.98 4.09 0 1.4 1.36 1.4.93 0 2-.56 1.07-.56 2.08-1.38 1-.82 1.69-1.59l.74-.87.16-.16q.09-.09.15-.09.22 0 .22.22 0 .06-.06.21-.07.16-.22.34l-.99 1.12q-.72.81-1.76 1.63-1.03.82-2.13 1.35-1.1.52-2 .52"></path><rect width="13.64" height="12.71" x="-6.82" y="-6.36" fill="none" rx="0" ry="0" transform="translate(94.68 552.01)"></rect><path fill="#f7d3c1" d="M119.1 559.515q-5.18.24-7.44-2.58-2.73 2.11-4 2.11-.68 0-1.01-.66-.32-.67-.32-1.45 0-1.48 1.15-4.27 1.36-3.17 2.51-3.17.59 0 .9 1.86.52 2.79.96 3.85 1.02-1.09 2.55-2.95 1.54-1.86 3.55-4.49 5.03-6.61 6.67-7.23.56-.21 1.12-.21.62 0 1 .26.39.26.39.61 0 .52-.9.62-.65.34-1.6 1.17-.94.84-1.98 1.91-1.04 1.07-1.94 2.11-.9 1.04-1.45 1.78-3.32 4.62-6.64 7.38l-.18.15q.99 1.46 2.38 2.02 1.4.56 3.1.56 2.82 0 5.38-.86 2.56-.85 4.62-2.54t3.4-4.14q1.45-2.66 1.45-5.08 0-1.64-.71-3.12-.71-1.47-1.91-2.52-1.19-1.06-2.65-1.37-1.7-.37-3.56-.37-4.78 0-8.81 2.2-4.24 2.33-4.24 5.21 0 .78.46 1.33.37.44.53.5h-.19q-.87-.16-1.49-.87t-.62-1.58q0-1.61 1.01-2.96 1.01-1.35 2.93-2.46 3.85-2.21 9.08-2.21 1.18 0 2.36.13 1.18.12 2.33.37 2.01.43 3.65 1.64 1.65 1.21 2.64 2.95.99 1.73.99 3.75 0 2.32-1.36 4.8-1.37 2.52-3.52 4.21-2.16 1.68-4.85 2.57-2.7.88-5.74 1.04m-11.28-1.03q1.33-.59 3.22-2.45-.9-1.48-1.18-2.51-.18-.68-.28-2.07-2.13 3.07-2.13 5.36 0 .96.37 1.67"></path><rect width="28.24" height="21.56" x="-14.12" y="-10.78" fill="none" rx="0" ry="0" transform="translate(120.95 549.33)"></rect><path fill="#f7d3c1" d="M141.27 547.045q-.53 0-.92-.34t-.39-.77q0-.87 1.18-.87.44 0 .87.3.43.29.43.72 0 .38-.4.67-.4.29-.77.29m-5.74 11.01q-.68 0-1.13-.45-.45-.45-.45-1.6 0-.65.29-1.5.3-.85.75-1.72t.88-1.55q1.74-2.82 2.85-2.85.28 0 .69.23.4.23.4.51l-2.36 3.04q-2.32 3.01-2.32 4.28 0 .99.77.99.5 0 1.29-.42t1.66-1.07q.87-.65 1.66-1.39.79-.75 1.28-1.37.31-.4.55-.56.23-.15.29-.15.12 0 .12.19 0 .15-.35.62-.36.46-.98 1.08-.74.74-1.64 1.61-.9.87-1.95 1.48-1.06.6-2.3.6"></path><rect width="8.8" height="12.99" x="-4.4" y="-6.5" fill="none" rx="0" ry="0" transform="translate(138.85 552.06)"></rect><path fill="#f7d3c1" d="M141.08 564.065q-.93 0-1.58-.77-.65-.78-.68-1.68.09-.37.28-.37.18 0 .21.48t.5.95q.46.46.9.46 1.8 0 3.78-2.32.71-.84 1.47-1.97t1.48-2.56l1.55-3.07-2.33 2.36q-1.08 1.08-1.88 1.61-.79.53-1.22.53-.74 0-1.49-.54-.74-.55-.83-1.26-.31-2.39 3-5.67 3.32-3.26 5.92-3.26.72 0 1.12.34.22.19.32.56.11.37.18.37.12 0 .21-.04.1-.05.22-.05.4 0 .67.28.26.28.17.56-.03.28-.9 1.67-.56.93-1.27 2.25-.72 1.32-1.51 2.73t-1.53 2.63q-.75 1.23-1.33 2-2.86 3.78-5.43 3.78m2.2-7.06q1.8 0 4.9-3.94l3.29-4.53q-.19-.43-.78-.43-1.92 0-5.15 3.04-3.34 3.16-3 5.11.15.75.74.75"></path><rect width="14.28" height="17.08" x="-7.14" y="-8.54" fill="none" rx="0" ry="0" transform="translate(146.46 556.02)"></rect><path fill="#f7d3c1" d="M159.74 547.045q-.52 0-.91-.34t-.39-.77q0-.87 1.18-.87.43 0 .87.3.43.29.43.72 0 .38-.4.67-.41.29-.78.29m-5.73 11.01q-.68 0-1.13-.45-.45-.45-.45-1.6 0-.65.29-1.5.3-.85.74-1.72.45-.87.89-1.55 1.73-2.82 2.85-2.85.28 0 .68.23.41.23.41.51l-2.36 3.04q-2.33 3.01-2.33 4.28 0 .99.78.99.5 0 1.29-.42t1.65-1.07q.87-.65 1.66-1.39.79-.75 1.29-1.37.31-.4.54-.56.23-.15.3-.15.12 0 .12.19 0 .15-.36.62-.35.46-.97 1.08-.75.74-1.65 1.61-.89.87-1.95 1.48-1.05.6-2.29.6"></path><rect width="8.8" height="12.99" x="-4.4" y="-6.5" fill="none" rx="0" ry="0" transform="translate(157.33 552.06)"></rect><path fill="#f7d3c1" d="M161.82 557.895q-.99 0-1.57-.48-.57-.48-.57-1.72 0-.71.43-1.81.44-1.1 1.09-2.37.65-1.27 1.3-2.51-.4.09-.71.09-.93 0-.93-.71 0-.34.26-.53.27-.19.48-.22h.08q.08 0 .2-.03h1.8q.56-.71 1.15-1.52.83-1.05 1.33-1.24h.09q.22 0 .62.22.5.28.5.56 0 .4-1.49 2.08.28.03.81.03h2.37q.7 0 1.45-.02.76-.01 1.32-.03.56-.02.62-.02.1.04.1.1 0 .28-3.66.74-2.08.28-3.18.44-1.1.15-1.19.18-.44.37-1.06 1.27-.62.9-1.24 2.02-.62 1.11-1.04 2.12-.41 1.01-.41 1.57 0 .49.37.82.37.32 1.21.32.55 0 1.33-.24.77-.25 1.47-.58.7-.32 1.01-.51.81-.5 1.78-1.32.98-.82 1.94-1.87.43-.44.59-.44.09 0 .09.13 0 .25-.46.8-.75.9-1.66 1.72-.92.83-2.03 1.51-1.27.77-2.44 1.11-1.16.34-2.15.34"></path><rect width="12.87" height="13.05" x="-6.43" y="-6.53" fill="none" rx="0" ry="0" transform="translate(166.62 551.87)"></rect><path fill="#f7d3c1" d="M171.18 557.865q-.74 0-1.49-.52-.74-.53-.83-1.24-.31-2.39 3-5.68 3.29-3.28 5.92-3.28.72 0 1.12.34.22.22.33.59.1.37.17.37.12 0 .21-.05.1-.04.22-.04.37 0 .65.28.28.27.31.49.03.06-1.98 3.07-2.02 2.95-1.83 4 .15.71.68.71 1.61 0 5.89-5.33.09-.12.19-.12.15 0 .15.21 0 .25-.28.62-3.93 5.3-6.04 5.3-.28 0-.53-.09-1.36-.53-1.36-2.04 0-.53.12-1.06l-1.92 1.86q-.87.87-1.57 1.24-.69.37-1.13.37m-.28-.68q1.8 0 4.9-3.94l3.29-4.52q-.25-.44-.81-.44-1.89 0-5.11 3.04-3.35 3.1-3.01 5.12.15.74.74.74"></path><rect width="15.16" height="10.72" x="-7.58" y="-5.36" fill="none" rx="0" ry="0" transform="translate(176.81 553)"></rect><path fill="#f7d3c1" d="M184.23 557.775q-.9 0-1.67-.45-.78-.45-.78-1.5 0-1.46 1.04-3.47 1.04-2.02 2.37-4.19 3.63-5.89 5.15-5.89.31 0 .63.23.33.24.36.51l-2.17 2.92q-1.27 1.7-2.29 3.15-1.03 1.44-1.77 2.58l-.84 1.34q-.46.74-.82 1.53-.35.79-.35 1.6 0 .37.21.66.22.3.78.3.99 0 2.6-1.07t3.19-2.96q.16-.19.35-.34.18-.16.31-.16.15 0 .15.19 0 .09-.2.36-.2.26-.33.41l-.74.84q-.62.68-1.47 1.49-.86.8-1.8 1.36-.95.56-1.91.56"></path><rect width="9.55" height="15.5" x="-4.78" y="-7.75" fill="none" rx="0" ry="0" transform="translate(187.06 550.52)"></rect><path fill="#f7d3c1" d="M202.15 561.065q-2.42 0-3.84-1.13-1.43-1.14-1.43-3.28 0-1.55.67-2.92.66-1.38 1.81-2.47 1.15-1.08 2.62-1.7 1.47-.62 3.08-.62 1.65 0 2.59.74.95.74.95 2.01 0 .93-1.21 2.42-1.21 1.49-1.21.99 0-.12.09-.24 1-1.46 1-2.73 0-1.15-.73-1.83-.73-.68-1.91-.68-1.3 0-2.5.63-1.19.64-2.12 1.69-.93 1.06-1.46 2.33-.52 1.27-.52 2.51 0 1.7 1.1 2.59 1.1.88 2.9.88 1.83 0 3.51-.67 1.69-.66 3.03-1.9 1.58-1.49 3.19-4.34l2.7-4.87q1.05-1.67 2.2-4.04 1.15-2.38 2.42-5.45-4.47-.06-8.68.87-4.5.96-6.67 2.67-.93.68-.93 1.42 0 .66.73 1.07.73.42 1.84.42.66 0 1.55-.18.9-.19 1.74-.51.84-.33 1.27-.73.31-.25.44-.25.24 0 .09.25-.65.77-1.69 1.3t-2.19.79q-1.14.26-2.14.26-1.51 0-2.37-.6-.85-.61-.85-1.57 0-1.11 1.12-2.17 2.1-2.04 7.53-3.04 2.11-.37 4.53-.54 2.41-.17 5.14-.14.68-.59 1.3-.59t.47.65q1.95.13 3.95.5t3.66 1.04q1.66.67 2.68 1.64 1.02.98 1.02 2.31 0 1.43-.94 2.71-.95 1.29-2.42 2.28-1.47.99-3.08 1.58-1.49.53-3.18.84-1.69.31-3.33.31-1.24 0-2.38-.19-1.13-.18-2.06-.58-1.89 2.75-3.14 4.49-1.26 1.74-1.94 2.42-3.35 3.35-8 3.35m16.74-10.23q1.15 0 2.28-.24 1.13-.23 2.43-.63 1.3-.44 2.64-1.1 1.33-.67 2.45-1.52 1.11-.85 1.79-1.83.69-.98.69-1.97 0-1.11-.93-1.94-.93-.82-2.45-1.34-1.52-.53-3.29-.83-1.77-.29-3.41-.38l-.99 3.1q-.53 1.33-1.49 3.1-.96 1.76-2.35 3.96l-.69 1.06q.22.12.48.2.27.08.58.14.59.12 1.14.17.56.05 1.12.05"></path><rect width="35.74" height="23.35" x="-17.87" y="-11.68" fill="none" rx="0" ry="0" transform="translate(215.25 549.89)"></rect><path fill="#f7d3c1" d="M234.64 557.865q-1.33 0-1.83-.69-.5-.7-.5-1.88 0-1.3.81-3.1.31-.71.65-1.29.34-.57.71-1.07-.12.04-.21.04h-.19q-.74 0-1.24-1.06l-2.29 2.98q-1.83 2.38-2.24 2.38-.15 0-.15-.12 0-.15.15-.4.1-.19.38-.5 1.17-1.36 2.17-2.7.99-1.33 1.64-2.6.71-2.7 1.8-2.7.71 0 .71.65 0 .59-.77 1.55-.75.97-.75 1 0 .65.96.65.56 0 1.24-.41l.81-.49q.06-.03.18-.03.38 0 .66.31.27.31.18.56l-2.14 2.69q-1.98 2.54-1.98 4.09 0 1.4 1.36 1.4.93 0 2-.56 1.07-.56 2.08-1.38 1.01-.82 1.69-1.59l.74-.87.16-.16q.09-.09.15-.09.22 0 .22.22 0 .06-.06.21-.06.16-.22.34l-.99 1.12q-.71.81-1.75 1.63-1.04.82-2.14 1.35-1.1.52-2 .52"></path><rect width="13.64" height="12.71" x="-6.82" y="-6.36" fill="none" rx="0" ry="0" transform="translate(235.48 552.01)"></rect><path fill="#f7d3c1" d="M242.11 558.115q-.99 0-1.8-.63-.8-.64-.8-1.69 0-2.2 2.69-5.03 2.76-2.85 4.93-2.85.71 0 1.16.39.45.39.45.95 0 1.73-2.76 3.41-2.44 1.48-4.12 1.48-.25 0-.43-.06-.47.84-.47 1.77 0 1.61 1.52 1.61 1.55 0 4-2.08 1.89-1.52 3.22-3.22.28-.37.5-.37.19 0 .19.18 0 .19-.25.53-.87 1.15-1.86 2.11-.99.96-2.14 1.77-2.39 1.73-4.03 1.73m.19-4.65q1.17 0 3.06-1.18.62-.43 1.23-.97.6-.55.99-1.1.39-.56.39-1 0-.4-.65-.4-.93 0-2.61 1.4-.8.68-1.55 1.48-.74.81-1.27 1.71.19.06.41.06"></path><rect width="10.88" height="10.2" x="-5.44" y="-5.1" fill="none" rx="0" ry="0" transform="translate(245.45 553.51)"></rect><path fill="#f7d3c1" d="M252.06 557.775q-1.46 0-2.15-.96-.7-.96-1.14-2.67-.55.56-.77.56-.16 0-.16-.25 0-.18.16-.34l.79-.96q.79-.96 2.68-2.7l3.91-3.65q.8-.78 1.28-1.18.48-.4.7-.4.99 0 .99.74 0 .37-.4.87-.31.37-.45.57-.14.2-.17.23-.56.96-1.02 3.44-.34 1.83-.59 3.01-.25 1.18-.4 1.71 1.3-.03 2.57-.81 1.27-.77 2.73-2.54.06-.06.18-.19.13-.12.25-.12.19 0 .19.15 0 .16-.1.31-.09.16-.18.28-.96 1.15-1.8 1.88-.84.73-1.77 1.15-.93.41-2.2.69l-.99.65q-.4.28-.96.41-.56.12-1.18.12m.37-1.58q.72 0 1.18-.34.34-.19.67-1.04.32-.85.63-2.12.25-1.09.39-2.13.14-1.04.26-2l.13-1.05q-.72.53-1.8 1.52-1.09.99-2.14 2.08-1.05 1.08-1.36 1.59-.31.51-.34.76-.13 1.24.6 1.99.73.74 1.78.74"></path><rect width="13.4" height="12.55" x="-6.7" y="-6.28" fill="none" rx="0" ry="0" transform="translate(255.04 552)"></rect><path fill="#f7d3c1" d="M261.21 558.115q-1 0-1.8-.63-.81-.64-.81-1.69 0-2.2 2.7-5.03 2.76-2.85 4.93-2.85.71 0 1.16.39.45.39.45.95 0 1.73-2.76 3.41-2.45 1.48-4.12 1.48-.25 0-.44-.06-.46.84-.46 1.77 0 1.61 1.52 1.61 1.55 0 4-2.08 1.89-1.52 3.22-3.22.28-.37.5-.37.18 0 .18.18 0 .19-.25.53-.86 1.15-1.86 2.11-.99.96-2.13 1.77-2.39 1.73-4.03 1.73m.18-4.65q1.18 0 3.07-1.18.62-.43 1.22-.97.61-.55 1-1.1.38-.56.38-1 0-.4-.65-.4-.93 0-2.6 1.4-.81.68-1.55 1.48-.74.81-1.27 1.71.18.06.4.06"></path><rect width="10.88" height="10.2" x="-5.44" y="-5.1" fill="none" rx="0" ry="0" transform="translate(264.54 553.51)"></rect><path fill="#f7d3c1" d="M275.5 557.775q-.84 0-1.18-.48-.34-.48-.34-1.19 0-1.8 1.24-3.85l1.98-3.22q-2.11 1.55-4.18 3.87-.56.62-1.26 1.46t-1.53 1.92q-1.12 1.46-1.34 1.46-.43 0-.71-.39-.28-.39-.28-.7 0-.24.16-.91.15-.67.37-1.16.22-.53.45-1.04t.45-1.01l-1.86 1.95q-.06.07-.37.38t-.5.31q-.16 0-.16-.22 0-.06.05-.17.05-.11.2-.26.47-.47.96-1 .5-.52 1.03-1.21.28-.34.83-1.03.56-.7 1.23-1.51.66-.8 1.25-1.49.16-.21.34-.29.19-.08.25-.08.84 0 .84.65 0 .19-.09.38-2.79 3.84-3.35 5.85 3.59-3.59 5.78-5.4 2.19-1.82 3.12-1.82.49 0 .75.16.27.15.27.59 0 .15-.03.24-.1.22-1.27 1.74-.72.87-1.26 1.58-.54.71-.88 1.24-.56.87-.84 1.63-.28.76-.28 1.28 0 .22.06.53.07.31.38.31.71 0 2.23-1.24.71-.62 1.33-1.25.62-.64 1.18-1.26.12-.12.4-.48t.34-.36q.13 0 .13.25 0 .13-.14.42t-.3.45q-.34.4-1.01 1.12-.66.71-1.48 1.45-.82.75-1.6 1.27-.77.53-1.36.53"></path><rect width="14.95" height="10.2" x="-7.47" y="-5.1" fill="none" rx="0" ry="0" transform="translate(274.42 553.17)"></rect><path fill="#f7d3c1" d="M282.44 558.115q-.99 0-1.8-.63-.8-.64-.8-1.69 0-2.2 2.69-5.03 2.76-2.85 4.93-2.85.75 0 1.18.39.43.39.43.95 0 .77-.37 1.42-.43.81-1.24.81-.8 0-.8-.5 0-.34.4-1.02.43-.71.43-.75 0-.06-.09-.06-.87.1-2.42 1.27-.68.53-1.19 1-.51.46-.82.89l-1.21 1.77q-.19.28-.39.96-.2.68-.2 1.03 0 .62.42 1.02t1.07.4q1.55 0 4.09-2.01 2.05-1.62 3.29-3.26.15-.18.37-.18.21 0 .21.12 0 .09-.15.31-1.71 2.26-4 3.91-2.45 1.73-4.03 1.73"></path><rect width="10.78" height="10.2" x="-5.39" y="-5.1" fill="none" rx="0" ry="0" transform="translate(285.73 553.51)"></rect><path fill="#f7d3c1" d="M290.44 558.115q-.99 0-1.8-.63-.81-.64-.81-1.69 0-2.2 2.7-5.03 2.76-2.85 4.93-2.85.71 0 1.16.39.45.39.45.95 0 1.73-2.76 3.41-2.45 1.48-4.12 1.48-.25 0-.43-.06-.47.84-.47 1.77 0 1.61 1.52 1.61 1.55 0 4-2.08 1.89-1.52 3.22-3.22.28-.37.5-.37.19 0 .19.18 0 .19-.25.53-.87 1.15-1.86 2.11-.99.96-2.14 1.77-2.39 1.73-4.03 1.73m.18-4.65q1.18 0 3.07-1.18.62-.43 1.23-.97.6-.55.99-1.1.39-.56.39-1 0-.4-.65-.4-.93 0-2.61 1.4-.8.68-1.55 1.48-.74.81-1.27 1.71.19.06.4.06"></path><rect width="10.89" height="10.2" x="-5.45" y="-5.1" fill="none" rx="0" ry="0" transform="translate(293.77 553.51)"></rect><path fill="#f7d3c1" d="M299.46 560.195q-.12-.03-.12-.09 0-.04.71-.84.71-.81.62-1.43-.03-.34-.44-.6-.4-.27-.4-.54 0-.93.9-.93.43 0 .87.29.43.29.43.76 0 1.3-1.08 2.48-.99 1.02-1.49.9"></path><rect width="2.69" height="4.48" x="-1.34" y="-2.24" fill="none" rx="0" ry="0" transform="translate(301.19 558.5)"></rect><path fill="#f7d3c1" d="M315.58 561.065q-2.42 0-3.84-1.13-1.43-1.14-1.43-3.28 0-1.55.67-2.92.66-1.38 1.81-2.47 1.15-1.08 2.62-1.7 1.47-.62 3.08-.62 1.65 0 2.59.74.95.74.95 2.01 0 .93-1.21 2.42-1.21 1.49-1.21.99 0-.12.09-.24.99-1.46.99-2.73 0-1.15-.72-1.83-.73-.68-1.91-.68-1.3 0-2.5.63-1.19.64-2.12 1.69-.93 1.06-1.46 2.33-.52 1.27-.52 2.51 0 1.7 1.1 2.59 1.1.88 2.9.88 1.82 0 3.51-.67 1.69-.66 3.03-1.9 1.58-1.49 3.19-4.34l2.7-4.87q1.05-1.67 2.2-4.04 1.14-2.38 2.42-5.45-4.47-.06-8.68.87-4.5.96-6.67 2.67-.93.68-.93 1.42 0 .66.73 1.07.73.42 1.84.42.65 0 1.55-.18.9-.19 1.74-.51.84-.33 1.27-.73.31-.25.43-.25.25 0 .1.25-.65.77-1.69 1.3t-2.19.79q-1.14.26-2.14.26-1.52 0-2.37-.6-.85-.61-.85-1.57 0-1.11 1.12-2.17 2.1-2.04 7.53-3.04 2.11-.37 4.52-.54 2.42-.17 5.15-.14.68-.59 1.3-.59t.47.65q1.95.13 3.95.5t3.66 1.04q1.66.67 2.68 1.64 1.02.98 1.02 2.31 0 1.43-.94 2.71-.95 1.29-2.42 2.28-1.47.99-3.09 1.58-1.48.53-3.17.84-1.69.31-3.34.31-1.24 0-2.37-.19-1.13-.18-2.06-.58-1.89 2.75-3.15 4.49-1.25 1.74-1.93 2.42-3.35 3.35-8 3.35m16.74-10.23q1.15 0 2.28-.24 1.13-.23 2.43-.63 1.3-.44 2.64-1.1 1.33-.67 2.45-1.52 1.11-.85 1.79-1.83.69-.98.69-1.97 0-1.11-.93-1.94-.93-.82-2.45-1.34-1.52-.53-3.29-.83-1.77-.29-3.41-.38l-.99 3.1q-.53 1.33-1.49 3.1-.96 1.76-2.36 3.96l-.68 1.06q.22.12.48.2.27.08.58.14.59.12 1.14.17.56.05 1.12.05"></path><rect width="35.74" height="23.35" x="-17.87" y="-11.68" fill="none" rx="0" ry="0" transform="translate(328.68 549.89)"></rect><path fill="#f7d3c1" d="M343.32 558.115q-.99 0-1.79-.63-.81-.64-.81-1.69 0-2.2 2.7-5.03 2.76-2.85 4.93-2.85.71 0 1.16.39.45.39.45.95 0 1.73-2.76 3.41-2.45 1.48-4.12 1.48-.25 0-.44-.06-.46.84-.46 1.77 0 1.61 1.52 1.61 1.55 0 4-2.08 1.89-1.52 3.22-3.22.28-.37.5-.37.18 0 .18.18 0 .19-.25.53-.86 1.15-1.86 2.11-.99.96-2.14 1.77-2.38 1.73-4.03 1.73m.19-4.65q1.18 0 3.07-1.18.62-.43 1.22-.97.61-.55 1-1.1.38-.56.38-1 0-.4-.65-.4-.93 0-2.6 1.4-.81.68-1.55 1.48-.75.81-1.27 1.71.18.06.4.06"></path><rect width="10.88" height="10.2" x="-5.44" y="-5.1" fill="none" rx="0" ry="0" transform="translate(346.66 553.51)"></rect><path fill="#f7d3c1" d="M356.03 557.865q-1.33 0-1.82-.69-.5-.7-.5-1.88 0-1.3.81-3.1.31-.71.65-1.29.34-.57.71-1.07-.12.04-.22.04h-.18q-.75 0-1.24-1.06l-2.3 2.98q-1.83 2.38-2.23 2.38-.15 0-.15-.12 0-.15.15-.4.09-.19.37-.5 1.18-1.36 2.17-2.7.99-1.33 1.65-2.6.71-2.7 1.79-2.7.72 0 .72.65 0 .59-.78 1.55-.74.97-.74 1 0 .65.96.65.56 0 1.24-.41l.8-.49q.07-.03.19-.03.37 0 .65.31t.19.56l-2.14 2.69q-1.99 2.54-1.99 4.09 0 1.4 1.37 1.4.93 0 2-.56 1.07-.56 2.07-1.38 1.01-.82 1.69-1.59l.75-.87q.06-.06.15-.16.1-.09.16-.09.22 0 .22.22 0 .06-.07.21-.06.16-.21.34l-1 1.12q-.71.81-1.75 1.63-1.04.82-2.14 1.35-1.1.52-2 .52"></path><rect width="13.64" height="12.71" x="-6.82" y="-6.36" fill="none" rx="0" ry="0" transform="translate(356.88 552.01)"></rect><path fill="#f7d3c1" d="M356.65 564.065q-.93 0-1.58-.77-.65-.78-.68-1.68.09-.37.28-.37.19 0 .22.48t.49.95q.47.46.93.46 2.64 0 4.81-3.25.59-.87 1.46-2.53.86-1.66 1.92-4.17l1.67-4.03q-3.1-.03-3.1-.74 0-.34.31-.54.31-.21.5-.21l.77.02q.75.02 2.14.05 3.04-6.76 5.58-6.76.99 0 1.95.93.25.25.25.65 0 .96-.56.96-.15 0-.31-.25-.12-.21-.4-.35-.28-.14-.53-.14-.93 0-1.62.69-.7.7-1.31 1.82-.6 1.11-1.28 2.45h.37q3.38 0 4.5-.1.12.03.12.13 0 .25-2.2.68-.87.12-1.71.28-.83.15-1.7.31-.4.87-.99 2.06t-1.34 2.65q-1.45 2.73-2.38 4.34-.93 1.61-1.31 2.14-2.69 3.84-5.27 3.84"></path><rect width="20.18" height="23.09" x="-10.09" y="-11.54" fill="none" rx="0" ry="0" transform="translate(364.98 553.02)"></rect><path fill="#f7d3c1" d="M371.01 558.115q-.99 0-1.8-.63-.81-.64-.81-1.69 0-2.2 2.7-5.03 2.76-2.85 4.93-2.85.71 0 1.16.39.45.39.45.95 0 1.73-2.76 3.41-2.45 1.48-4.12 1.48-.25 0-.43-.06-.47.84-.47 1.77 0 1.61 1.52 1.61 1.55 0 4-2.08 1.89-1.52 3.22-3.22.28-.37.5-.37.18 0 .18.18 0 .19-.24.53-.87 1.15-1.86 2.11-1 .96-2.14 1.77-2.39 1.73-4.03 1.73m.18-4.65q1.18 0 3.07-1.18.62-.43 1.23-.97.6-.55.99-1.1.39-.56.39-1 0-.4-.65-.4-.93 0-2.61 1.4-.8.68-1.55 1.48-.74.81-1.27 1.71.19.06.4.06"></path><rect width="10.88" height="10.2" x="-5.44" y="-5.1" fill="none" rx="0" ry="0" transform="translate(374.34 553.51)"></rect><path fill="#f7d3c1" d="M379.75 558.115q-.99 0-1.8-.63-.8-.64-.8-1.69 0-2.2 2.69-5.03 2.76-2.85 4.93-2.85.75 0 1.18.39.43.39.43.95 0 .77-.37 1.42-.43.81-1.24.81-.8 0-.8-.5 0-.34.4-1.02.43-.71.43-.75 0-.06-.09-.06-.87.1-2.42 1.27-.68.53-1.19 1-.51.46-.82.89l-1.21 1.77q-.19.28-.39.96-.2.68-.2 1.03 0 .62.42 1.02t1.07.4q1.55 0 4.09-2.01 2.04-1.62 3.28-3.26.16-.18.38-.18.21 0 .21.12 0 .09-.15.31-1.71 2.26-4 3.91-2.45 1.73-4.03 1.73"></path><rect width="10.78" height="10.2" x="-5.39" y="-5.1" fill="none" rx="0" ry="0" transform="translate(383.04 553.51)"></rect><path fill="#f7d3c1" d="M388.09 557.895q-.99 0-1.57-.48-.57-.48-.57-1.72 0-.71.43-1.81.44-1.1 1.09-2.37.65-1.27 1.3-2.51-.4.09-.71.09-.93 0-.93-.71 0-.34.26-.53t.48-.22h.08q.08 0 .2-.03h1.8q.56-.71 1.15-1.52.83-1.05 1.33-1.24h.09q.22 0 .62.22.5.28.5.56 0 .4-1.49 2.08.28.03.81.03h2.37q.69 0 1.45-.02.76-.01 1.32-.03.56-.02.62-.02.09.04.09.1 0 .28-3.65.74-2.08.28-3.18.44-1.1.15-1.19.18-.44.37-1.06 1.27-.62.9-1.24 2.02-.62 1.11-1.04 2.12-.42 1.01-.42 1.57 0 .49.38.82.37.32 1.21.32.55 0 1.33-.24.77-.25 1.47-.58.7-.32 1.01-.51.8-.5 1.78-1.32.98-.82 1.94-1.87.43-.44.59-.44.09 0 .09.13 0 .25-.46.8-.75.9-1.66 1.72-.92.83-2.03 1.51-1.27.77-2.44 1.11-1.16.34-2.15.34"></path><rect width="12.86" height="13.05" x="-6.43" y="-6.53" fill="none" rx="0" ry="0" transform="translate(392.88 551.87)"></rect><path fill="#f7d3c1" d="M396.95 558.115q-.99 0-1.79-.63-.81-.64-.81-1.69 0-2.2 2.7-5.03 2.76-2.85 4.93-2.85.71 0 1.16.39.45.39.45.95 0 1.73-2.76 3.41-2.45 1.48-4.12 1.48-.25 0-.44-.06-.46.84-.46 1.77 0 1.61 1.52 1.61 1.55 0 4-2.08 1.89-1.52 3.22-3.22.28-.37.5-.37.18 0 .18.18 0 .19-.25.53-.86 1.15-1.86 2.11-.99.96-2.14 1.77-2.38 1.73-4.03 1.73m.19-4.65q1.18 0 3.07-1.18.62-.43 1.22-.97.61-.55 1-1.1.38-.56.38-1 0-.4-.65-.4-.93 0-2.6 1.4-.81.68-1.55 1.48-.75.81-1.27 1.71.18.06.4.06"></path><rect width="10.88" height="10.2" x="-5.44" y="-5.1" fill="none" rx="0" ry="0" transform="translate(400.29 553.51)"></rect><path fill="#f7d3c1" d="M405.42 557.865q-.93 0-1.58-.51t-.75-1.25q-.12-1 .3-2 .42-1.01 1.14-1.94.73-.93 1.57-1.74 3.29-3.28 5.92-3.28.9 0 1.21.46.12.16.28.72 3.47-5.65 4.83-5.65.31 0 .66.16.34.15.34.4 0 .16-.16.4-.93 1.15-1.86 2.28t-1.83 2.28q-1.52 1.92-2.45 3.35-.93 1.43-1.33 2.42-.12.31-.23.76-.11.45-.11.91 0 .59.25 1.02.25.44.9.44 1.02 0 2.51-.99 1.49-1 3.47-3.26.12-.12.23-.22.11-.09.23-.12.28-.06.28.12 0 .1-.18.35-.96 1.14-2.14 2.26-1.18 1.11-2.4 1.84-1.23.73-2.28.73-1.06 0-1.49-.71-.43-.71-.43-1.61 0-.93.34-1.71l-2.51 2.51q-.84.84-1.54 1.21-.7.37-1.19.37m-.28-.68q1.33 0 4.43-3.66.16-.18 1.09-1.38.93-1.19 2.63-3.48-.22-.38-.74-.38-1.92 0-5.15 3.04-3.04 2.82-3.04 4.75 0 1.11.78 1.11"></path><rect width="16.32" height="15.19" x="-8.16" y="-7.59" fill="none" rx="0" ry="0" transform="translate(411.68 550.77)"></rect><path fill="#f7d3c1" d="M421.85 557.745q-.53 0-.92-.33-.38-.32-.38-.76 0-.89 1.17-.89.44 0 .87.29.44.29.44.76 0 .37-.41.65-.4.28-.77.28"></path><rect width="2.48" height="1.98" x="-1.24" y="-.99" fill="none" rx="0" ry="0" transform="translate(422.29 557.25)"></rect><path fill="#f7d3c1" d="M435.678 210.402a47.198 47.198 0 0 0-18.095-37.175 47.204 47.204 0 0 0 2.49-41.269 47.204 47.204 0 0 0-30.943-27.417 47.204 47.204 0 0 0-13.493-39.086 47.204 47.204 0 0 0-39.08-13.488 47.209 47.209 0 0 0-27.418-30.953 47.204 47.204 0 0 0-41.274 2.5 47.204 47.204 0 0 0-37.175-18.1 47.204 47.204 0 0 0-37.175 18.1 47.204 47.204 0 0 0-41.269-2.495 47.209 47.209 0 0 0-27.417 30.948 47.204 47.204 0 0 0-39.086 13.488 47.204 47.204 0 0 0-13.493 39.08 47.204 47.204 0 0 0-30.943 27.418 47.204 47.204 0 0 0 2.49 41.274 47.198 47.198 0 0 0-18.095 37.175 47.198 47.198 0 0 0 18.095 37.175 47.204 47.204 0 0 0-2.49 41.269 47.204 47.204 0 0 0 30.943 27.417 47.204 47.204 0 0 0 13.493 39.086 47.204 47.204 0 0 0 39.08 13.488 47.204 47.204 0 0 0 27.418 30.953 47.204 47.204 0 0 0 41.274-2.5 47.204 47.204 0 0 0 37.175 18.1 47.204 47.204 0 0 0 37.175-18.1 47.204 47.204 0 0 0 41.269 2.495 47.204 47.204 0 0 0 27.417-30.948 47.204 47.204 0 0 0 39.086-13.488 47.204 47.204 0 0 0 13.493-39.08 47.204 47.204 0 0 0 30.943-27.418 47.204 47.204 0 0 0-2.49-41.274 47.198 47.198 0 0 0 18.095-37.175M230.69 334.358c-68.456 0-123.951-55.5-123.951-123.956S162.234 86.446 230.69 86.446s123.956 55.5 123.956 123.956-55.5 123.956-123.956 123.956"></path><path fill="#f7d3c1" d="M271.064 173.676h-2.596c-3.966 0-7.273 2.765-9.458 5.28-2.185-2.515-5.494-5.28-9.459-5.28h-5.726c-3.965 0-7.273 2.765-9.46 5.28-2.184-2.515-5.49-5.28-9.457-5.28h-5.73c-2.016 0-3.793.927-5.349 2.054v-14.043c0-7.47-5.859-13.753-13.312-14.369a1.995 1.995 0 0 0-.438-.048h-.663c-.132 0-.261.014-.387.038-7.428.545-13.363 6.858-13.363 14.38v37.935c-3.503 3.094-8.606 8.733-8.606 15.336v24.726c0 18.822 15.252 34.136 34.002 34.136h39.259c18.92 0 34.313-15.313 34.313-34.136V188.81c-.002-7.143-5.804-15.133-13.57-15.133"></path></svg></svg>